<?xml version="1.0" encoding="utf-8"?>
<!-- Generator: Adobe Illustrator 25.0.0, SVG Export Plug-In . SVG Version: 6.00 Build 0)  -->
<svg version="1.1" id="katman_1" xmlns="http://www.w3.org/2000/svg" xmlns:xlink="http://www.w3.org/1999/xlink" x="0px" y="0px"
	 viewBox="0 0 466.9 70.1" style="enable-background:new 0 0 466.9 70.1;" xml:space="preserve">
<style type="text/css">
	.st0{fill:#FFFFFF;}
	.st1{fill:#FA3455;}
</style>
<g id="katman_4">
	<polygon class="st0" points="37.3,0 37.3,8.3 3.6,15.3 3.6,9 	"/>
	<polygon class="st0" points="37.3,59.6 37.3,67.8 3.6,61.4 3.6,55.1 	"/>
	<polygon class="st1" points="37.3,9.4 37.3,58.4 3.6,53.9 0,53.4 0,17.2 3.6,16.5 	"/>
	<polygon class="st0" points="38.7,0 38.7,8.3 72.4,15.3 72.4,9 	"/>
	<polygon class="st0" points="38.7,59.6 38.7,67.8 72.4,61.4 72.4,55.1 	"/>
	<polygon class="st1" points="38.7,9.4 38.7,58.4 72.4,53.9 76,53.4 76,17.2 72.4,16.5 	"/>
	<path class="st0" d="M106.6,37.5L78.7,13.7h18.7l16.5,14.1l16.5-14.1h18.7l-27.8,23.7v20.4h-14.7V37.5z"/>
	<path class="st0" d="M160.5,13.7h20.1c13.8,0,20.8,5.3,20.8,15.9V45c0,8.6-6.9,12.9-20.8,12.9h-20.1c-13.8,0-20.8-5.3-20.8-15.9
		V29.6C139.8,19,146.7,13.7,160.5,13.7z M180.6,24.1h-20.1c-4,0-6,1.8-6,5.5v12.2c0,3.7,2,5.5,6,5.5h20.1c4,0,6-1.8,6-5.5V29.6
		C186.6,26,184.6,24.1,180.6,24.1L180.6,24.1z"/>
	<path class="st0" d="M250.3,13.7H265V45c0,8.6-6.9,12.9-20.8,12.9h-20.1c-13.8,0-20.8-5.3-20.8-15.9V13.7h14.7v28.1
		c0,3.7,2,5.5,6,5.5h20.1c4,0,6-1.8,6-5.5L250.3,13.7z"/>
	<path class="st1" d="M267,24.1V13.7h40.9c13.8,0,20.8,5.3,20.8,15.9V45c0,8.6-6.9,12.9-20.8,12.9H267V32.1h14.7v15.3h26.1
		c4,0,6-1.8,6-5.5V29.6c0-3.7-2-5.5-6-5.5H267z"/>
	<path class="st1" d="M345.4,41v0.9c0,3.7,2,5.5,6,5.5h34.1v10.4h-34.1c-13.8,0-20.8-5.3-20.8-15.9V29.6c0-10.6,6.9-15.9,20.8-15.9
		h34.1v10.4h-34.1c-4,0-6,1.8-6,5.5v0.9h40.2V41H345.4z"/>
	<path class="st1" d="M409,35.8l-25.9-22h18.7l16.5,14.1l16.5-14.1h18.7l-25.9,22l39.2,34.3h-18.7l-29.9-26.3l-16.5,14.1h-18.7
		L409,35.8z"/>
</g>
</svg>
